# xmcd
#
# Track frame offsets:
# 150
# 18150
# 29702
# 45565
# 51827
# 65080
# 71772
# 106400
# 111267
# 129662
# 142317
# 161430
# 169087
# 174152
# 202215
# 210267
# 241560
# 248445
#
# Disc length: 3715 seconds
#
# Revision: 0
# Processed by: cddbd v1.4PL0 Copyright (c) Steve Scherf et al.
# Submitted via: Audion 3.0.2 (http://www.panic.com/audion/)
#
DISCID=000e8112
DTITLE=Bach - Cantate 88
DYEAR=1900
DGENRE=
TTITLE0=
TTITLE1=
TTITLE2=
TTITLE3=
TTITLE4=
TTITLE5=
TTITLE6=88 1
TTITLE7=88 2
TTITLE8=88 3
TTITLE9=88 4
TTITLE10=88 5
TTITLE11=88 6
TTITLE12=88 7
TTITLE13=
TTITLE14=
TTITLE15=
TTITLE16=
TTITLE17=
EXTD=
EXTT0=
EXTT1=
EXTT2=
EXTT3=
EXTT4=
EXTT5=
EXTT6=
EXTT7=
EXTT8=
EXTT9=
EXTT10=
EXTT11=
EXTT12=
EXTT13=
EXTT14=
EXTT15=
EXTT16=
EXTT17=
PLAYORDER=
